{"title":"Electronic.Arts.E3.2012.Press.Conference.WebRiP.xvid-lesty","uid":7329228,"size":742001322,"categoryP":"video","categoryS":"tv_shows","magnet":"?xt=urn:btih:cc2dde08d5d5aafad0385e4a1a167d580405c128&amp;dn=Electronic.Arts.E3.2012.Press.Conference.WebRiP.xvid-lesty&amp;tr=udp%3A%2F%2Ftracker.openbittorrent.com%3A80&amp;tr=udp%3A%2F%2Fopen.demonii.com%3A1337&amp;tr=udp%3A%2F%2Ftracker.coppersurfer.tk%3A6969&amp;tr=udp%3A%2F%2Fexodus.desync.com%3A6969","seeders":0,"leechers":0,"uploader":"lesty","files":3,"time":1338857766,"description":"I thought some people might want a copy, cheers from Canada.\n\n\n\n\n\nFormat                           : AVI\nFormat/Info                      : Audio Video Interleave\nFile size                        : 707 MiB\nDuration                         : 1h 22mn\nOverall bit rate                 : 1 194 Kbps\nWriting application              : Lavf52.84.0\n\nVideo\nID                               : 0\nFormat                           : xvid\nCodec ID                         : xvid\nDuration                         : 1h 22mn\nBit rate                         : 1 052 Kbps\nWidth                            : 640 pixels\nHeight                           : 360 pixels\nDisplay aspect ratio             : 16:9\nFrame rate                       : 29.970 fps\nBits/(Pixel*Frame)               : 0.152\nStream size                      : 623 MiB (88%)\n\nAudio\nID                               : 1\nFormat                           : MPEG Audio\nFormat version                   : Version 1\nFormat profile                   : Layer 3\nMode                             : Joint stereo\nMode extension                   : MS Stereo\nCodec ID                         : 55\nCodec ID/Hint                    : MP3\nDuration                         : 1h 22mn\nBit rate mode                    : Constant\nBit rate                         : 128 Kbps\nChannel(s)                       : 2 channels\nSampling rate                    : 48.0 KHz\nCompression mode                 : Lossy\nStream size                      : 75.8 MiB (11%)\nAlignment                        : Aligned on interleaves\nInterleave, duration             : 24 ms (0.72 video frame)\nWriting library                  : LAME3.98.4\n\n\n\n\n\n\n\n\nScreen Shots\n\n\n\n\n &lt;a href=&quot;\nhttp://i.imgur.com/CZ8mE.jpg&quot; rel=&quot;nofollow&quot; target=&quot;_NEW&quot;&gt;\nhttp://i.imgur.com/CZ8mE.jpg&lt;/a&gt;","torrent":{"xt":"urn:btih:cc2dde08d5d5aafad0385e4a1a167d580405c128","amp;dn":"Electronic.Arts.E3.2012.Press.Conference.WebRiP.xvid-lesty","amp;tr":["udp%3A%2F%2Ftracker.openbittorrent.com%3A80","udp%3A%2F%2Fopen.demonii.com%3A1337","udp%3A%2F%2Ftracker.coppersurfer.tk%3A6969","udp%3A%2F%2Fexodus.desync.com%3A6969"],"infoHash":"cc2dde08d5d5aafad0385e4a1a167d580405c128","infoHashBuffer":{"type":"Buffer","data":[204,45,222,8,213,213,170,250,208,56,94,74,26,22,125,88,4,5,193,40]},"announce":[],"urlList":[]}}